# xmcd
#
# Track frame offsets:
#	150
#	9820
#	26336
#	36627
#	45922
#	56247
#	64828
#	80797
#	91336
#	101375
#	115041
#	125486
#	136030
#	150215
#	158840
#	167627
#	185191
#	194197
#	204477
#
# Disc length: 2837 seconds
#
# Revision: 1
# Processed by: cddbd v1.5.1PL0 Copyright (c) Steve Scherf et al.
# Submitted via: audiograbber 1.83.01
#
DISCID=f90b1313
DTITLE=Andy and the Jordanaires - Living High
DYEAR=1999
DGENRE=Rock and Roll
TTITLE0=Don't Go
TTITLE1=Elvis And Andy
TTITLE2=All For You
TTITLE3=Box Of Candy
TTITLE4=Don't Tell Me Your Troubles
TTITLE5=Living High
TTITLE6=Hotel Coupe De Ville
TTITLE7=Somebody Touched Me 
TTITLE8=Far Far Away
TTITLE9=Call Me When The Sun Goes Down
TTITLE10=I Got Burned
TTITLE11=Sweet Flavors 
TTITLE12=Someone Should Tell Her
TTITLE13=Last Night At A Party
TTITLE14=Sweet, Sweet Girl
TTITLE15=I Don't Even Know Your Name
TTITLE16=Box Of Candy (Alternative Version)
TTITLE17=Sweet Flavors (Alternative Version)
TTITLE18=Living High (Alternative Version)
EXTD=
EXTT0=
EXTT1=
EXTT2=
EXTT3=
EXTT4=
EXTT5=
EXTT6=
EXTT7=
EXTT8=
EXTT9=
EXTT10=
EXTT11=
EXTT12=
EXTT13=
EXTT14=
EXTT15=
EXTT16=
EXTT17=
EXTT18=
PLAYORDER=
